fd_1_states
version=1
nRows=27
nColumns=17
inDegrees=yes

# SIMM Motion File Header:
name fd_1_states
datacolumns 17
datarows 27
otherdata 1
range 0.513149 0.530105
endheader
time	/jointset/r_shoulder/r_shoulder_elev/value	/jointset/r_shoulder/r_shoulder_elev/speed	/jointset/r_elbow/r_elbow_flex/value	/jointset/r_elbow/r_elbow_flex/speed	/forceset/TRIlong/activation	/forceset/TRIlong/fiber_length	/forceset/TRIlat/activation	/forceset/TRIlat/fiber_length	/forceset/TRImed/activation	/forceset/TRImed/fiber_length	/forceset/BIClong/activation	/forceset/BIClong/fiber_length	/forceset/BICshort/activation	/forceset/BICshort/fiber_length	/forceset/BRA/activation	/forceset/BRA/fiber_length
      0.513149	     -3.568929	   -110.936131	    139.028374	    -37.881052	      0.417551	      0.182731	      0.764641	      0.118578	      0.772504	      0.113679	      0.581151	      0.058340	      0.484980	      0.057069	      0.288257	      0.048170
      0.515209	     -3.802735	   -115.855152	    138.928079	    -58.767156	      0.395469	      0.182643	      0.725197	      0.118601	      0.737835	      0.113699	      0.637890	      0.058335	      0.561207	      0.056958	      0.275803	      0.048186
      0.517031	     -4.017113	   -119.302318	    138.807072	    -73.423076	      0.377451	      0.182540	      0.693961	      0.118622	      0.710285	      0.113716	      0.679606	      0.058330	      0.615363	      0.056877	      0.265462	      0.048215
      0.518853	     -4.237047	   -121.963832	    138.662785	    -84.315930	      0.360702	      0.182414	      0.665673	      0.118642	      0.685270	      0.113730	      0.715215	      0.058331	      0.660562	      0.056825	      0.255700	      0.048261
      0.519294	     -4.290869	   -122.497459	    138.625195	    -86.388862	      0.356830	      0.182380	      0.659236	      0.118646	      0.679570	      0.113733	      0.723049	      0.058332	      0.670393	      0.056817	      0.253423	      0.048274
      0.519588	     -4.326926	   -122.831168	    138.599614	    -87.653601	      0.354282	      0.182357	      0.655020	      0.118649	      0.675835	      0.113735	      0.728127	      0.058333	      0.676746	      0.056813	      0.251920	      0.048284
      0.519788	     -4.351602	   -123.048901	    138.581938	    -88.462999	      0.352559	      0.182341	      0.652178	      0.118651	      0.673315	      0.113736	      0.731527	      0.058333	      0.680991	      0.056810	      0.250902	      0.048290
      0.519883	     -4.363237	   -123.148623	    138.573559	    -88.829028	      0.351752	      0.182334	      0.650849	      0.118652	      0.672138	      0.113737	      0.733110	      0.058334	      0.682965	      0.056809	      0.250424	      0.048293
      0.519945	     -4.370901	   -123.213291	    138.568025	    -89.064704	      0.351222	      0.182329	      0.649978	      0.118652	      0.671366	      0.113737	      0.734145	      0.058334	      0.684255	      0.056808	      0.250111	      0.048295
      0.519994	     -4.376971	   -123.263942	    138.563634	    -89.248331	      0.350804	      0.182325	      0.649291	      0.118653	      0.670757	      0.113737	      0.734962	      0.058334	      0.685272	      0.056808	      0.249863	      0.048297
      0.520003	     -4.378039	   -123.272803	    138.562861	    -89.280368	      0.350801	      0.182324	      0.649208	      0.118653	      0.670684	      0.113738	      0.735053	      0.058334	      0.685397	      0.056808	      0.249820	      0.048297
      0.520012	     -4.379107	   -123.281650	    138.562087	    -89.312324	      0.351316	      0.182323	      0.649397	      0.118653	      0.670858	      0.113738	      0.734818	      0.058334	      0.685189	      0.056808	      0.249779	      0.048298
      0.520020	     -4.380176	   -123.290482	    138.561313	    -89.344199	      0.351863	      0.182322	      0.649603	      0.118653	      0.671047	      0.113738	      0.734570	      0.058334	      0.684969	      0.056808	      0.249738	      0.048298
      0.520064	     -4.385518	   -123.334426	    138.557438	    -89.502384	      0.354584	      0.182319	      0.650630	      0.118654	      0.671992	      0.113738	      0.733332	      0.058334	      0.683871	      0.056807	      0.249533	      0.048299
      0.520280	     -4.412260	   -123.549248	    138.537966	    -90.264368	      0.367865	      0.182299	      0.655708	      0.118655	      0.676659	      0.113739	      0.727196	      0.058336	      0.678422	      0.056806	      0.248514	      0.048307
      0.521363	     -4.546633	   -124.552601	    138.438384	    -93.447945	      0.427293	      0.182174	      0.679666	      0.118658	      0.698734	      0.113739	      0.697788	      0.058349	      0.652252	      0.056812	      0.243517	      0.048346
      0.522790	     -4.725250	   -125.871574	    138.302789	    -96.477437	      0.491973	      0.181968	      0.707989	      0.118647	      0.724933	      0.113721	      0.662035	      0.058388	      0.620299	      0.056843	      0.237174	      0.048400
      0.524217	     -4.905841	   -127.336727	    138.163454	    -98.789983	      0.545595	      0.181746	      0.733182	      0.118617	      0.748325	      0.113687	      0.629282	      0.058458	      0.590897	      0.056907	      0.231088	      0.048456
      0.525643	     -5.088669	   -129.016055	    138.020999	   -100.937230	      0.591065	      0.181520	      0.755714	      0.118574	      0.769311	      0.113641	      0.599173	      0.058568	      0.563756	      0.057010	      0.225245	      0.048514
      0.527070	     -5.274068	   -130.944396	    137.875307	   -103.403668	      0.630245	      0.181294	      0.775960	      0.118521	      0.788217	      0.113587	      0.571403	      0.058726	      0.538629	      0.057147	      0.219632	      0.048574
      0.528496	     -5.462408	   -133.141902	    137.725626	   -106.585970	      0.664411	      0.181072	      0.794222	      0.118460	      0.805309	      0.113526	      0.545716	      0.058929	      0.515304	      0.057311	      0.214237	      0.048634
      0.529923	     -5.654077	   -135.610375	    137.570731	   -110.742556	      0.694484	      0.180851	      0.810749	      0.118395	      0.820808	      0.113461	      0.521889	      0.059165	      0.493598	      0.057489	      0.209048	      0.048696
      0.529986	     -5.662573	   -135.724713	    137.563789	   -110.949520	      0.695722	      0.180841	      0.811438	      0.118392	      0.821455	      0.113458	      0.520883	      0.059176	      0.492680	      0.057497	      0.208824	      0.048699
      0.530004	     -5.665100	   -135.758784	    137.561724	   -111.011428	      0.695991	      0.180838	      0.811643	      0.118391	      0.821647	      0.113458	      0.520659	      0.059179	      0.492411	      0.057499	      0.208758	      0.048700
      0.530019	     -5.667059	   -135.785231	    137.560121	   -111.059558	      0.695650	      0.180836	      0.811801	      0.118391	      0.821795	      0.113457	      0.521128	      0.059181	      0.492226	      0.057501	      0.208702	      0.048701
      0.530033	     -5.669018	   -135.811704	    137.558518	   -111.107798	      0.695274	      0.180834	      0.811959	      0.118390	      0.821943	      0.113456	      0.521667	      0.059184	      0.492043	      0.057503	      0.208647	      0.048701
      0.530105	     -5.678822	   -135.944417	    137.550493	   -111.350588	      0.693399	      0.180823	      0.812747	      0.118387	      0.822683	      0.113453	      0.524346	      0.059196	      0.491128	      0.057512	      0.208371	      0.048705
